<?xml version="1.0" encoding="UTF-8"?>
<svg viewBox="0 0 75 75" xmlns="http://www.w3.org/2000/svg">
 <path transform="matrix(1.5152 0 0 1.5152 -259.29 80.286)" d="m220.62-28.238c0 13.668-11.08 24.749-24.749 24.749s-24.749-11.08-24.749-24.749 11.08-24.749 24.749-24.749 24.749 11.08 24.749 24.749z" fill="#6f916f"/>
 <g transform="translate(-117.93 78.489)">
  <path d="m130.43-50.131h12.5l6.25-8h12.5l6.25 8h12.5v25h-50z" fill="#fff"/>
  <path transform="matrix(1.0996 0 0 1.0996 109.95 -82.434)" d="m55.154 38.584c0 7.6152-6.1734 13.789-13.789 13.789s-13.789-6.1734-13.789-13.789 6.1734-13.789 13.789-13.789 13.789 6.1734 13.789 13.789z" fill="#fff" stroke="#6f916f" stroke-linecap="square" stroke-width="1.8189"/>
  <path transform="matrix(1.307 0 0 1.307 105.77 -92.289)" d="m46 40c0 4.4183-3.5817 8-8 8s-8-3.5817-8-8 3.5817-8 8-8 8 3.5817 8 8z" fill="#6f916f"/>
 </g>
</svg>
